<svg width="380" height="385" viewBox="0 0 380 385" fill="none" xmlns="http://www.w3.org/2000/svg">
<path d="M189.99 382.961C293.749 382.961 377.862 298.848 377.862 195.09C377.862 91.3316 293.749 7.21875 189.99 7.21875C86.232 7.21875 2.11914 91.3316 2.11914 195.09C2.11914 298.848 86.232 382.961 189.99 382.961Z" stroke="#333333" stroke-width="4"/>
<path d="M189.99 382.961C293.749 382.961 377.862 298.848 377.862 195.09C377.862 91.3316 293.749 7.21875 189.99 7.21875C86.232 7.21875 2.11914 91.3316 2.11914 195.09C2.11914 298.848 86.232 382.961 189.99 382.961Z" fill="#006EC1"/>
<mask id="mask0_508_436" style="mask-type:luminance" maskUnits="userSpaceOnUse" x="2" y="7" width="376" height="376">
<path d="M189.99 382.822C293.749 382.822 377.862 298.709 377.862 194.95C377.862 91.1919 293.749 7.0791 189.99 7.0791C86.2319 7.0791 2.11914 91.1919 2.11914 194.95C2.11914 298.709 86.2319 382.822 189.99 382.822Z" fill="white"/>
</mask>
<g mask="url(#mask0_508_436)">
<path d="M338.796 294.355C275.508 212.304 157.581 196.794 75.3981 259.713C-6.78497 322.632 -22.1028 440.154 41.1846 522.205C104.472 604.257 222.399 619.766 304.582 556.847C386.765 493.928 402.083 376.407 338.796 294.355Z" fill="#014980"/>
<path d="M75.6872 261.261C258.224 159.88 440.396 420.373 304.871 558.395C222.688 621.314 104.761 605.805 41.4737 523.753C-21.8138 441.702 -6.49585 324.18 75.6872 261.261Z" fill="#0080E2"/>
</g>
<path d="M342.605 258.506C341.923 258.532 340.245 249.276 337.042 246.047C334.532 243.516 327.345 242.289 327.315 241.607C327.285 240.925 334.327 238.847 336.599 236.044C339.463 232.511 340.357 223.172 341.038 223.142C341.72 223.115 343.398 232.372 346.601 235.601C349.111 238.131 356.298 239.359 356.328 240.04C356.359 240.722 349.316 242.801 347.044 245.603C344.18 249.137 343.286 258.475 342.605 258.506Z" fill="#014980"/>
<path d="M43.6527 251.246C43.1416 251.268 41.8826 244.323 39.4805 241.901C37.5981 240.003 32.2078 239.083 32.1851 238.572C32.1632 238.061 37.4443 236.501 39.1481 234.399C41.2962 231.75 41.9665 224.745 42.4777 224.723C42.9888 224.7 44.2478 231.645 46.6499 234.067C48.5323 235.965 53.9227 236.885 53.9453 237.397C53.9672 237.908 48.6862 239.467 46.9823 241.569C44.8343 244.219 44.1639 251.223 43.6527 251.246Z" fill="#014980"/>
<path d="M104.411 98.1329C103.815 98.1594 102.346 90.0568 99.5436 87.2311C97.3475 85.0169 91.0588 83.943 91.0323 83.3467C91.0059 82.7503 97.168 80.9313 99.1558 78.4791C101.662 75.3876 102.444 67.216 103.04 67.1895C103.637 67.1631 105.105 75.2657 107.908 78.0913C110.104 80.3055 116.393 81.3794 116.419 81.9758C116.446 82.5722 110.283 84.3911 108.296 86.8434C105.79 89.9349 105.008 98.1064 104.411 98.1329Z" fill="#014980"/>
<path d="M188.92 63.7734C188.607 77.1068 196.267 89.9232 209.262 95.5437C222.257 101.165 236.842 97.9712 246.345 88.6128C237.174 86.276 226.657 83.6082 216.379 79.1631C206.101 74.7169 196.903 68.8564 188.92 63.7734Z" fill="#014980"/>
<path d="M278.467 86.2102C280.784 80.854 271.698 71.3744 256.283 61.7517C256.228 61.1007 256.154 60.4519 256.062 59.8078C254.448 48.5857 247.22 38.44 236.052 33.6092C224.884 28.7784 212.54 30.4579 203.258 36.9674C202.724 37.3414 202.201 37.7317 201.688 38.1375C184.12 33.4931 170.991 33.3635 168.674 38.7203C166.452 43.8583 174.724 52.7904 189.008 62.0036C196.874 67.0771 206.425 72.7051 217.192 77.3619C227.958 82.0196 238.49 85.0784 247.575 87.3369C264.07 91.4374 276.244 91.3486 278.467 86.2102ZM180.376 41.0656C181.651 38.1154 188.822 38.0824 199.095 40.4183C198.665 40.8365 198.247 41.2666 197.839 41.71C195.459 44.2928 193.448 47.2922 191.923 50.6614C191.845 50.8338 191.766 51.0065 191.69 51.1819C191.561 51.4806 191.438 51.7809 191.316 52.0824C183.566 47.595 179.206 43.77 180.376 41.0656ZM253.224 78.8591C253.361 78.5655 253.495 78.2703 253.625 77.9713C253.7 77.7959 253.772 77.6203 253.844 77.4443C255.255 74.0271 256.064 70.5074 256.317 67.0038C256.36 66.4033 256.387 65.8029 256.398 65.2043C265.134 71.0906 270.02 76.3392 268.744 79.2891C267.575 81.9938 261.802 81.4359 253.224 78.8591Z" fill="#014980"/>
<path d="M154.942 93.1669C157.14 93.1669 158.921 91.3857 158.921 89.1884C158.921 86.9912 157.14 85.21 154.942 85.21C152.745 85.21 150.964 86.9912 150.964 89.1884C150.964 91.3857 152.745 93.1669 154.942 93.1669Z" fill="#014980"/>
<path d="M127.438 49.9719C129.879 49.9719 131.858 47.9927 131.858 45.5514C131.858 43.11 129.879 41.1309 127.438 41.1309C124.996 41.1309 123.017 43.11 123.017 45.5514C123.017 47.9927 124.996 49.9719 127.438 49.9719Z" fill="#014980"/>
<path d="M56.8692 105.109C58.9444 105.109 60.6267 103.426 60.6267 101.351C60.6267 99.276 58.9444 97.5938 56.8692 97.5938C54.7941 97.5938 53.1118 99.276 53.1118 101.351C53.1118 103.426 54.7941 105.109 56.8692 105.109Z" fill="#014980"/>
<path d="M307.783 99.1776C309.98 99.1776 311.761 97.3964 311.761 95.1992C311.761 93.0019 309.98 91.2207 307.783 91.2207C305.585 91.2207 303.804 93.0019 303.804 95.1992C303.804 97.3964 305.585 99.1776 307.783 99.1776Z" fill="#014980"/>
<path d="M294.587 226.929C296.906 226.929 298.787 225.049 298.787 222.73C298.787 220.41 296.906 218.53 294.587 218.53C292.268 218.53 290.388 220.41 290.388 222.73C290.388 225.049 292.268 226.929 294.587 226.929Z" fill="#014980"/>
<path d="M276.743 48.2037C278.697 48.2037 280.28 46.6204 280.28 44.6673C280.28 42.7142 278.697 41.1309 276.743 41.1309C274.79 41.1309 273.207 42.7142 273.207 44.6673C273.207 46.6204 274.79 48.2037 276.743 48.2037Z" fill="#014980"/>
<path d="M46.9775 309.747L206.835 311.447L206.816 313.209L46.9775 309.747Z" fill="#014980"/>
<path d="M273.749 308.454L251.617 305.242L232.572 303.328V299.462C229.916 294.493 227.015 289.671 224.094 284.856L206.488 284.683V288.141L212.418 290.118L213.313 302.09L203.759 302.207V322.358L213.313 322.489L212.418 334.449L206.488 336.497V339.954L224.094 339.786L232.572 325.199V321.315L251.605 319.341L273.749 316.158L273.749 308.454Z" fill="#014980"/>
<path d="M224.397 305.99H206.936V318.629H224.397V305.99Z" fill="#E4E4E4"/>
<path d="M223.311 285.924L224.856 288.438L211.897 288.277L210.456 285.924L223.311 285.924Z" fill="#E4E4E4"/>
<path d="M223.311 338.622L224.856 336.107L211.897 336.268L210.456 338.622L223.311 338.622Z" fill="#E4E4E4"/>
<path d="M228.601 307.284C232.402 307.276 235.54 307.265 239.339 307.374C242.212 308.344 244.384 309.955 244.387 312.308C244.39 314.666 242.071 316.409 239.339 317.265L228.601 317.351V307.284Z" fill="#E4E4E4"/>
<path d="M252.774 305.409V319.175L250.625 319.449V315.781L248.841 315.186L248.841 309.454L250.625 308.86L250.625 305.135L252.774 305.409Z" fill="#E4E4E4"/>
<path d="M264.678 308.131V318.46L262.242 318.811V307.785L264.678 308.131Z" fill="#E4E4E4"/>
</svg>
