<svg width="381" height="385" viewBox="0 0 381 385" fill="none" xmlns="http://www.w3.org/2000/svg">
<path d="M190.862 382.955C294.62 382.955 378.733 298.843 378.733 195.084C378.733 91.3257 294.62 7.21289 190.862 7.21289C87.1035 7.21289 2.99072 91.3257 2.99072 195.084C2.99072 298.843 87.1035 382.955 190.862 382.955Z" stroke="#333333" stroke-width="4"/>
<path d="M190.862 382.955C294.62 382.955 378.733 298.843 378.733 195.084C378.733 91.3257 294.62 7.21289 190.862 7.21289C87.1035 7.21289 2.99072 91.3257 2.99072 195.084C2.99072 298.843 87.1035 382.955 190.862 382.955Z" fill="#006EC1"/>
<mask id="mask0_507_305" style="mask-type:luminance" maskUnits="userSpaceOnUse" x="2" y="7" width="377" height="376">
<path d="M190.862 382.816C294.62 382.816 378.733 298.703 378.733 194.944C378.733 91.1861 294.62 7.07324 190.862 7.07324C87.1035 7.07324 2.99072 91.1861 2.99072 194.944C2.99072 298.703 87.1035 382.816 190.862 382.816Z" fill="white"/>
</mask>
<g mask="url(#mask0_507_305)">
<path d="M339.667 294.35C276.38 212.298 158.452 196.788 76.2694 259.707C-5.91364 322.626 -21.2315 440.148 42.0559 522.2C105.343 604.251 223.27 619.761 305.454 556.842C387.637 493.923 402.955 376.401 339.667 294.35Z" fill="#014980"/>
<path d="M76.5588 261.255C259.096 159.874 441.268 420.367 305.743 558.39C223.56 621.309 105.633 605.799 42.3452 523.747C-20.9422 441.696 -5.62427 324.174 76.5588 261.255Z" fill="#0080E2"/>
</g>
<path d="M343.476 258.5C342.795 258.526 341.116 249.27 337.913 246.041C335.403 243.51 328.216 242.283 328.186 241.601C328.156 240.92 335.198 238.841 337.47 236.038C340.334 232.505 341.228 223.166 341.91 223.136C342.591 223.109 344.27 232.366 347.472 235.595C349.982 238.126 357.169 239.353 357.2 240.034C357.23 240.716 350.187 242.795 347.916 245.597C345.052 249.131 344.158 258.47 343.476 258.5Z" fill="#014980"/>
<path d="M44.5243 251.24C44.0132 251.262 42.7542 244.317 40.3521 241.895C38.4697 239.998 33.0794 239.077 33.0567 238.566C33.0348 238.055 38.3159 236.495 40.0197 234.394C42.1678 231.744 42.8381 224.74 43.3493 224.717C43.8604 224.694 45.1194 231.639 47.5215 234.061C49.4039 235.959 54.7942 236.88 54.8169 237.391C54.8388 237.902 49.5577 239.461 47.8539 241.563C45.7058 244.213 45.0355 251.217 44.5243 251.24Z" fill="#014980"/>
<path d="M105.283 98.127C104.686 98.1535 103.218 90.0509 100.415 87.2253C98.2191 85.0111 91.9304 83.9372 91.9039 83.3408C91.8774 82.7444 98.0396 80.9255 100.027 78.4733C102.533 75.3817 103.316 67.2101 103.912 67.1837C104.508 67.1572 105.977 75.2599 108.779 78.0854C110.976 80.2997 117.264 81.3735 117.291 81.97C117.317 82.5663 111.155 84.3852 109.167 86.8375C106.661 89.9291 105.879 98.1006 105.283 98.127Z" fill="#014980"/>
<path d="M189.791 63.7675C189.478 77.1009 197.138 89.9173 210.133 95.5379C223.128 101.159 237.713 97.9654 247.216 88.6069C238.045 86.2702 227.528 83.6024 217.25 79.1573C206.972 74.711 197.774 68.8505 189.791 63.7675Z" fill="#014980"/>
<path d="M279.338 86.2043C281.655 80.8482 272.57 71.3686 257.155 61.7459C257.1 61.0948 257.025 60.446 256.933 59.802C255.32 48.5798 248.091 38.4342 236.923 33.6034C225.755 28.7726 213.411 30.452 204.129 36.9615C203.595 37.3356 203.072 37.7258 202.56 38.1316C184.992 33.4872 171.863 33.3576 169.546 38.7145C167.323 43.8525 175.595 52.7846 189.88 61.9977C197.746 67.0713 207.296 72.6993 218.064 77.356C228.83 82.0138 239.362 85.0726 248.446 87.3311C264.941 91.4316 277.116 91.3428 279.338 86.2043ZM181.247 41.0597C182.523 38.1096 189.693 38.0765 199.966 40.4125C199.537 40.8307 199.118 41.2608 198.71 41.7041C196.33 44.287 194.319 47.2864 192.794 50.6556C192.717 50.8279 192.637 51.0007 192.561 51.1761C192.432 51.4747 192.309 51.7751 192.188 52.0765C184.437 47.5891 180.077 43.7641 181.247 41.0597ZM254.095 78.8532C254.232 78.5596 254.367 78.2644 254.496 77.9655C254.572 77.7901 254.643 77.6144 254.716 77.4385C256.127 74.0213 256.935 70.5016 257.188 66.998C257.231 66.3974 257.258 65.7971 257.269 65.1985C266.005 71.0847 270.892 76.3334 269.616 79.2833C268.446 81.9879 262.673 81.4301 254.095 78.8532Z" fill="#014980"/>
<path d="M155.814 93.161C158.011 93.161 159.792 91.3798 159.792 89.1826C159.792 86.9853 158.011 85.2041 155.814 85.2041C153.617 85.2041 151.835 86.9853 151.835 89.1826C151.835 91.3798 153.617 93.161 155.814 93.161Z" fill="#014980"/>
<path d="M128.309 49.966C130.751 49.966 132.73 47.9869 132.73 45.5455C132.73 43.1041 130.751 41.125 128.309 41.125C125.868 41.125 123.889 43.1041 123.889 45.5455C123.889 47.9869 125.868 49.966 128.309 49.966Z" fill="#014980"/>
<path d="M57.7408 105.103C59.816 105.103 61.4982 103.42 61.4982 101.345C61.4982 99.2702 59.816 97.5879 57.7408 97.5879C55.6656 97.5879 53.9834 99.2702 53.9834 101.345C53.9834 103.42 55.6656 105.103 57.7408 105.103Z" fill="#014980"/>
<path d="M308.654 99.1717C310.851 99.1717 312.633 97.3905 312.633 95.1933C312.633 92.9961 310.851 91.2148 308.654 91.2148C306.457 91.2148 304.676 92.9961 304.676 95.1933C304.676 97.3905 306.457 99.1717 308.654 99.1717Z" fill="#014980"/>
<path d="M295.459 226.923C297.778 226.923 299.658 225.043 299.658 222.724C299.658 220.405 297.778 218.524 295.459 218.524C293.139 218.524 291.259 220.405 291.259 222.724C291.259 225.043 293.139 226.923 295.459 226.923Z" fill="#014980"/>
<path d="M277.615 48.1978C279.568 48.1978 281.151 46.6145 281.151 44.6614C281.151 42.7083 279.568 41.125 277.615 41.125C275.662 41.125 274.079 42.7083 274.079 44.6614C274.079 46.6145 275.662 48.1978 277.615 48.1978Z" fill="#014980"/>
<path d="M71.7167 123.938V162.371H64.6981L47.9772 138.181H47.6957V162.371H39.5699V123.938H46.7011L63.2906 148.109H63.6284V123.938H71.7167ZM78.4304 123.938H88.4516L99.0359 149.76H99.4863L110.07 123.938H120.092V162.371H112.21V137.356H111.891L101.945 162.183H96.5775L86.6313 137.262H86.3123V162.371H78.4304V123.938ZM147.636 134.991C147.486 133.477 146.842 132.301 145.703 131.463C144.565 130.625 143.02 130.206 141.068 130.206C139.742 130.206 138.622 130.393 137.709 130.769C136.795 131.131 136.095 131.638 135.607 132.289C135.131 132.939 134.894 133.677 134.894 134.503C134.869 135.191 135.013 135.792 135.325 136.305C135.651 136.818 136.095 137.262 136.658 137.637C137.221 138 137.871 138.319 138.609 138.594C139.348 138.857 140.136 139.082 140.974 139.27L144.427 140.095C146.103 140.471 147.642 140.971 149.044 141.597C150.445 142.222 151.658 142.992 152.684 143.905C153.71 144.818 154.505 145.894 155.068 147.133C155.643 148.371 155.937 149.791 155.95 151.393C155.937 153.745 155.337 155.784 154.148 157.511C152.972 159.225 151.27 160.557 149.044 161.508C146.829 162.446 144.158 162.915 141.03 162.915C137.928 162.915 135.225 162.44 132.923 161.489C130.634 160.538 128.845 159.131 127.556 157.267C126.28 155.39 125.611 153.069 125.548 150.304H133.411C133.499 151.593 133.868 152.669 134.518 153.532C135.181 154.383 136.063 155.027 137.164 155.465C138.278 155.89 139.535 156.103 140.936 156.103C142.313 156.103 143.507 155.903 144.521 155.503C145.547 155.102 146.341 154.546 146.904 153.832C147.467 153.119 147.749 152.3 147.749 151.374C147.749 150.511 147.492 149.785 146.979 149.197C146.479 148.609 145.741 148.109 144.765 147.696C143.801 147.283 142.619 146.908 141.218 146.57L137.033 145.519C133.793 144.731 131.234 143.498 129.358 141.822C127.481 140.145 126.549 137.887 126.561 135.047C126.549 132.72 127.168 130.687 128.419 128.948C129.683 127.209 131.416 125.852 133.618 124.876C135.82 123.9 138.322 123.412 141.124 123.412C143.977 123.412 146.466 123.9 148.593 124.876C150.733 125.852 152.396 127.209 153.585 128.948C154.774 130.687 155.387 132.701 155.424 134.991H147.636ZM199.131 136.361C198.868 135.448 198.499 134.641 198.024 133.94C197.548 133.227 196.967 132.626 196.279 132.138C195.603 131.638 194.827 131.256 193.951 130.994C193.088 130.731 192.131 130.6 191.08 130.6C189.116 130.6 187.39 131.088 185.901 132.063C184.424 133.039 183.273 134.459 182.448 136.323C181.622 138.175 181.209 140.439 181.209 143.117C181.209 145.794 181.616 148.071 182.429 149.948C183.242 151.824 184.393 153.257 185.882 154.245C187.371 155.221 189.129 155.709 191.155 155.709C192.994 155.709 194.565 155.384 195.866 154.733C197.179 154.07 198.18 153.138 198.868 151.937C199.569 150.736 199.919 149.316 199.919 147.677L201.571 147.921H191.662V141.803H207.745V146.645C207.745 150.023 207.032 152.925 205.605 155.352C204.179 157.767 202.215 159.631 199.713 160.945C197.211 162.246 194.346 162.897 191.118 162.897C187.515 162.897 184.349 162.102 181.622 160.513C178.895 158.912 176.768 156.641 175.241 153.701C173.728 150.748 172.971 147.245 172.971 143.192C172.971 140.077 173.421 137.299 174.322 134.86C175.235 132.407 176.511 130.331 178.15 128.629C179.789 126.928 181.697 125.633 183.874 124.745C186.051 123.856 188.409 123.412 190.949 123.412C193.126 123.412 195.153 123.731 197.029 124.369C198.906 124.995 200.57 125.883 202.021 127.034C203.485 128.185 204.68 129.555 205.605 131.144C206.531 132.72 207.125 134.459 207.388 136.361H199.131ZM213.849 162.371V123.938H221.974V155.671H238.451V162.371H213.849ZM236.678 123.938H245.78L254.543 140.49H254.919L263.683 123.938H272.784L258.766 148.784V162.371H250.696V148.784L236.678 123.938ZM277.223 162.371V123.938H292.386C295.301 123.938 297.784 124.494 299.836 125.608C301.888 126.709 303.452 128.241 304.528 130.206C305.616 132.157 306.16 134.409 306.16 136.961C306.16 139.514 305.61 141.766 304.509 143.717C303.408 145.669 301.813 147.189 299.723 148.278C297.647 149.366 295.132 149.91 292.179 149.91H282.515V143.398H290.866C292.43 143.398 293.718 143.129 294.732 142.591C295.758 142.041 296.521 141.284 297.021 140.321C297.534 139.345 297.791 138.225 297.791 136.961C297.791 135.685 297.534 134.572 297.021 133.621C296.521 132.658 295.758 131.913 294.732 131.388C293.706 130.85 292.405 130.581 290.828 130.581H285.348V162.371H277.223ZM311.438 162.371V123.938H319.564V139.795H336.06V123.938H344.167V162.371H336.06V146.495H319.564V162.371H311.438Z" fill="#E4E4E4"/>
<path d="M40.2404 202.368V166.419H61.9361V170.281H44.5936V182.428H60.8127V186.289H44.5936V198.506H62.217V202.368H40.2404ZM71.8888 166.419L81.1569 181.375H81.4378L90.7058 166.419H95.8314L84.5271 184.394L95.8314 202.368H90.7058L81.4378 187.694H81.1569L71.8888 202.368H66.7633L78.3484 184.394L66.7633 166.419H71.8888ZM129.845 177.653H125.492C125.234 176.401 124.784 175.301 124.14 174.353C123.508 173.405 122.736 172.61 121.823 171.966C120.922 171.311 119.922 170.819 118.822 170.492C117.722 170.164 116.575 170 115.381 170C113.205 170 111.233 170.55 109.466 171.65C107.71 172.75 106.312 174.371 105.271 176.512C104.241 178.654 103.726 181.281 103.726 184.394C103.726 187.506 104.241 190.134 105.271 192.275C106.312 194.417 107.71 196.037 109.466 197.137C111.233 198.237 113.205 198.787 115.381 198.787C116.575 198.787 117.722 198.623 118.822 198.296C119.922 197.968 120.922 197.483 121.823 196.839C122.736 196.184 123.508 195.382 124.14 194.434C124.784 193.475 125.234 192.375 125.492 191.134H129.845C129.517 192.971 128.921 194.616 128.055 196.067C127.189 197.518 126.112 198.752 124.825 199.77C123.538 200.777 122.092 201.543 120.489 202.07C118.898 202.596 117.195 202.86 115.381 202.86C112.315 202.86 109.589 202.111 107.201 200.613C104.814 199.115 102.936 196.985 101.567 194.223C100.198 191.462 99.5132 188.185 99.5132 184.394C99.5132 180.602 100.198 177.326 101.567 174.564C102.936 171.802 104.814 169.672 107.201 168.175C109.589 166.677 112.315 165.928 115.381 165.928C117.195 165.928 118.898 166.191 120.489 166.718C122.092 167.244 123.538 168.017 124.825 169.035C126.112 170.041 127.189 171.27 128.055 172.721C128.921 174.16 129.517 175.804 129.845 177.653ZM136.88 202.368V166.419H141.233V182.428H160.401V166.419H164.754V202.368H160.401V186.289H141.233V202.368H136.88ZM174.944 202.368H170.38L183.58 166.419H188.073L201.273 202.368H196.71L185.967 172.106H185.686L174.944 202.368ZM176.629 188.326H195.024V192.187H176.629V188.326ZM235.379 166.419V202.368H231.167L211.577 174.143H211.226V202.368H206.873V166.419H211.086L230.745 194.715H231.096V166.419H235.379ZM268.665 177.653C268.278 176.471 267.769 175.412 267.137 174.476C266.517 173.528 265.774 172.721 264.908 172.054C264.054 171.387 263.083 170.878 261.994 170.527C260.906 170.176 259.712 170 258.413 170C256.284 170 254.347 170.55 252.603 171.65C250.86 172.75 249.473 174.371 248.443 176.512C247.413 178.654 246.899 181.281 246.899 184.394C246.899 187.506 247.419 190.134 248.461 192.275C249.502 194.417 250.912 196.037 252.691 197.137C254.47 198.237 256.471 198.787 258.694 198.787C260.754 198.787 262.568 198.348 264.136 197.471C265.716 196.581 266.944 195.329 267.822 193.714C268.711 192.088 269.156 190.175 269.156 187.975L270.49 188.255H259.677V184.394H273.369V188.255C273.369 191.216 272.737 193.791 271.473 195.979C270.221 198.167 268.489 199.864 266.277 201.069C264.077 202.263 261.55 202.86 258.694 202.86C255.511 202.86 252.715 202.111 250.304 200.613C247.905 199.115 246.033 196.985 244.687 194.223C243.353 191.462 242.686 188.185 242.686 184.394C242.686 181.55 243.066 178.993 243.827 176.723C244.599 174.441 245.687 172.498 247.092 170.895C248.496 169.292 250.158 168.063 252.077 167.209C253.996 166.355 256.108 165.928 258.413 165.928C260.309 165.928 262.076 166.214 263.715 166.788C265.365 167.35 266.833 168.151 268.12 169.193C269.419 170.222 270.502 171.457 271.368 172.896C272.234 174.324 272.83 175.91 273.158 177.653H268.665ZM280.825 202.368V166.419H302.52V170.281H285.178V182.428H301.397V186.289H285.178V198.506H302.801V202.368H280.825Z" fill="#E4E4E4"/>
<path d="M47.8491 309.741L207.706 311.441L207.687 313.203L47.8491 309.741Z" fill="#014980"/>
<path d="M274.621 308.448L252.489 305.236L233.443 303.322V299.457C230.788 294.487 227.887 289.665 224.966 284.85L207.36 284.677V288.135L213.29 290.113L214.185 302.084L204.631 302.201V322.352L214.185 322.483L213.29 334.443L207.36 336.491V339.948L224.966 339.78L233.443 325.193V321.31L252.477 319.335L274.621 316.152L274.621 308.448Z" fill="#014980"/>
<path d="M225.269 305.984H207.808V318.623H225.269V305.984Z" fill="#E4E4E4"/>
<path d="M224.183 285.918L225.728 288.432L212.768 288.271L211.328 285.918L224.183 285.918Z" fill="#E4E4E4"/>
<path d="M224.183 338.616L225.728 336.102L212.768 336.263L211.328 338.616L224.183 338.616Z" fill="#E4E4E4"/>
<path d="M229.473 307.278C233.274 307.27 236.411 307.259 240.21 307.368C243.084 308.338 245.256 309.949 245.259 312.302C245.261 314.661 242.943 316.403 240.21 317.259L229.473 317.345V307.278Z" fill="#E4E4E4"/>
<path d="M253.646 305.403V319.169L251.497 319.443V315.775L249.713 315.18L249.713 309.448L251.497 308.855L251.497 305.129L253.646 305.403Z" fill="#E4E4E4"/>
<path d="M265.55 308.125V318.454L263.114 318.805V307.779L265.55 308.125Z" fill="#E4E4E4"/>
</svg>
