<svg width="380" height="385" viewBox="0 0 380 385" fill="none" xmlns="http://www.w3.org/2000/svg">
<path d="M190.029 382.961C293.788 382.961 377.901 298.848 377.901 195.09C377.901 91.3316 293.788 7.21875 190.029 7.21875C86.271 7.21875 2.1582 91.3316 2.1582 195.09C2.1582 298.848 86.271 382.961 190.029 382.961Z" stroke="#333333" stroke-width="4"/>
<path d="M190.029 382.961C293.788 382.961 377.901 298.848 377.901 195.09C377.901 91.3316 293.788 7.21875 190.029 7.21875C86.271 7.21875 2.1582 91.3316 2.1582 195.09C2.1582 298.848 86.271 382.961 190.029 382.961Z" fill="#006EC1"/>
<mask id="mask0_507_372" style="mask-type:luminance" maskUnits="userSpaceOnUse" x="2" y="7" width="376" height="376">
<path d="M190.029 382.822C293.788 382.822 377.901 298.709 377.901 194.95C377.901 91.1919 293.788 7.0791 190.029 7.0791C86.271 7.0791 2.1582 91.1919 2.1582 194.95C2.1582 298.709 86.271 382.822 190.029 382.822Z" fill="white"/>
</mask>
<g mask="url(#mask0_507_372)">
<path d="M338.835 294.355C275.548 212.304 157.62 196.794 75.4374 259.713C-6.74567 322.632 -22.0635 440.154 41.2239 522.205C104.511 604.257 222.438 619.766 304.621 556.847C386.805 493.928 402.122 376.407 338.835 294.355Z" fill="#014980"/>
<path d="M75.7268 261.261C258.264 159.88 440.436 420.373 304.911 558.395C222.728 621.314 104.801 605.805 41.5132 523.753C-21.7742 441.702 -6.4563 324.18 75.7268 261.261Z" fill="#0080E2"/>
</g>
<path d="M342.644 258.506C341.962 258.532 340.284 249.276 337.081 246.047C334.571 243.516 327.384 242.289 327.354 241.607C327.324 240.925 334.366 238.847 336.638 236.044C339.502 232.511 340.396 223.172 341.077 223.142C341.759 223.115 343.437 232.372 346.64 235.601C349.15 238.131 356.337 239.359 356.367 240.04C356.398 240.722 349.355 242.801 347.083 245.603C344.219 249.137 343.326 258.475 342.644 258.506Z" fill="#014980"/>
<path d="M43.6918 251.246C43.1807 251.268 41.9216 244.323 39.5195 241.901C37.6372 240.003 32.2469 239.083 32.2242 238.572C32.2023 238.061 37.4833 236.501 39.1872 234.399C41.3352 231.75 42.0056 224.745 42.5167 224.723C43.0279 224.7 44.2868 231.645 46.689 234.067C48.5714 235.965 53.9617 236.885 53.9844 237.397C54.0063 237.908 48.7252 239.467 47.0213 241.569C44.8733 244.219 44.203 251.223 43.6918 251.246Z" fill="#014980"/>
<path d="M104.45 98.1329C103.854 98.1594 102.385 90.0568 99.5827 87.2311C97.3866 85.0169 91.0979 83.943 91.0714 83.3467C91.0449 82.7503 97.2071 80.9313 99.1949 78.4791C101.701 75.3876 102.483 67.216 103.079 67.1895C103.676 67.1631 105.144 75.2657 107.947 78.0913C110.143 80.3055 116.432 81.3794 116.458 81.9758C116.485 82.5722 110.323 84.3911 108.335 86.8434C105.829 89.9349 105.047 98.1064 104.45 98.1329Z" fill="#014980"/>
<path d="M188.959 63.7734C188.646 77.1068 196.306 89.9232 209.301 95.5437C222.296 101.165 236.881 97.9712 246.384 88.6128C237.213 86.276 226.696 83.6082 216.418 79.1631C206.14 74.7169 196.942 68.8564 188.959 63.7734Z" fill="#014980"/>
<path d="M278.506 86.2102C280.823 80.854 271.737 71.3744 256.322 61.7517C256.267 61.1007 256.193 60.4519 256.101 59.8078C254.487 48.5857 247.259 38.44 236.091 33.6092C224.923 28.7784 212.579 30.4579 203.297 36.9674C202.763 37.3414 202.24 37.7317 201.727 38.1375C184.16 33.4931 171.03 33.3635 168.713 38.7203C166.491 43.8583 174.763 52.7904 189.048 62.0036C196.913 67.0771 206.464 72.7051 217.231 77.3619C227.997 82.0196 238.529 85.0784 247.614 87.3369C264.109 91.4374 276.283 91.3486 278.506 86.2102ZM180.415 41.0656C181.69 38.1154 188.861 38.0824 199.134 40.4183C198.704 40.8365 198.286 41.2666 197.878 41.71C195.498 44.2928 193.487 47.2922 191.962 50.6614C191.884 50.8338 191.805 51.0065 191.729 51.1819C191.6 51.4806 191.477 51.7809 191.355 52.0824C183.605 47.595 179.245 43.77 180.415 41.0656ZM253.263 78.8591C253.4 78.5655 253.535 78.2703 253.664 77.9713C253.739 77.7959 253.811 77.6203 253.883 77.4443C255.294 74.0271 256.103 70.5074 256.356 67.0038C256.399 66.4033 256.426 65.8029 256.437 65.2043C265.173 71.0906 270.059 76.3392 268.783 79.2891C267.614 81.9938 261.841 81.4359 253.263 78.8591Z" fill="#014980"/>
<path d="M154.981 93.1669C157.179 93.1669 158.96 91.3857 158.96 89.1884C158.96 86.9912 157.179 85.21 154.981 85.21C152.784 85.21 151.003 86.9912 151.003 89.1884C151.003 91.3857 152.784 93.1669 154.981 93.1669Z" fill="#014980"/>
<path d="M127.477 49.9719C129.918 49.9719 131.897 47.9927 131.897 45.5514C131.897 43.11 129.918 41.1309 127.477 41.1309C125.036 41.1309 123.056 43.11 123.056 45.5514C123.056 47.9927 125.036 49.9719 127.477 49.9719Z" fill="#014980"/>
<path d="M56.9083 105.109C58.9835 105.109 60.6657 103.426 60.6657 101.351C60.6657 99.276 58.9835 97.5938 56.9083 97.5938C54.8331 97.5938 53.1509 99.276 53.1509 101.351C53.1509 103.426 54.8331 105.109 56.9083 105.109Z" fill="#014980"/>
<path d="M307.822 99.1776C310.019 99.1776 311.8 97.3964 311.8 95.1992C311.8 93.0019 310.019 91.2207 307.822 91.2207C305.624 91.2207 303.843 93.0019 303.843 95.1992C303.843 97.3964 305.624 99.1776 307.822 99.1776Z" fill="#014980"/>
<path d="M294.626 226.929C296.945 226.929 298.826 225.049 298.826 222.73C298.826 220.41 296.945 218.53 294.626 218.53C292.307 218.53 290.427 220.41 290.427 222.73C290.427 225.049 292.307 226.929 294.626 226.929Z" fill="#014980"/>
<path d="M276.783 48.2037C278.736 48.2037 280.319 46.6204 280.319 44.6673C280.319 42.7142 278.736 41.1309 276.783 41.1309C274.829 41.1309 273.246 42.7142 273.246 44.6673C273.246 46.6204 274.829 48.2037 276.783 48.2037Z" fill="#014980"/>
<path d="M87.435 142.039V205.93H75.7674L47.9711 165.717H47.5031V205.93H33.9949V142.039H45.8497L73.4276 182.22H73.9892V142.039H87.435ZM98.5956 142.039H115.255L132.85 184.965H133.598L151.193 142.039H167.852V205.93H154.75V164.344H154.219L137.685 205.618H128.763L112.229 164.188H111.698V205.93H98.5956V142.039ZM213.641 160.414C213.392 157.897 212.321 155.942 210.428 154.549C208.535 153.155 205.967 152.458 202.722 152.458C200.518 152.458 198.656 152.77 197.138 153.394C195.62 153.998 194.455 154.84 193.644 155.921C192.854 157.003 192.459 158.23 192.459 159.603C192.417 160.746 192.656 161.745 193.176 162.597C193.717 163.45 194.455 164.188 195.391 164.812C196.327 165.416 197.409 165.946 198.636 166.403C199.863 166.84 201.173 167.215 202.566 167.527L208.307 168.899C211.094 169.523 213.652 170.355 215.981 171.395C218.31 172.435 220.328 173.714 222.033 175.232C223.739 176.75 225.059 178.539 225.995 180.598C226.952 182.657 227.441 185.017 227.461 187.68C227.441 191.59 226.442 194.98 224.467 197.85C222.512 200.699 219.683 202.914 215.981 204.495C212.3 206.054 207.86 206.834 202.66 206.834C197.502 206.834 193.01 206.044 189.183 204.463C185.377 202.883 182.403 200.543 180.261 197.444C178.139 194.325 177.027 190.467 176.923 185.87H189.994C190.14 188.012 190.753 189.801 191.835 191.236C192.937 192.65 194.403 193.721 196.234 194.449C198.085 195.156 200.175 195.51 202.504 195.51C204.792 195.51 206.778 195.177 208.463 194.512C210.168 193.846 211.489 192.921 212.425 191.735C213.361 190.55 213.829 189.187 213.829 187.648C213.829 186.213 213.402 185.007 212.549 184.03C211.718 183.052 210.49 182.22 208.868 181.534C207.267 180.848 205.301 180.224 202.972 179.662L196.015 177.915C190.629 176.605 186.375 174.556 183.256 171.769C180.136 168.982 178.587 165.228 178.607 160.507C178.587 156.639 179.616 153.259 181.696 150.368C183.796 147.477 186.677 145.221 190.337 143.599C193.998 141.976 198.157 141.165 202.816 141.165C207.558 141.165 211.697 141.976 215.232 143.599C218.789 145.221 221.555 147.477 223.531 150.368C225.506 153.259 226.526 156.608 226.588 160.414H213.641ZM278.913 162.691C278.476 161.173 277.862 159.831 277.072 158.667C276.282 157.481 275.315 156.483 274.171 155.672C273.048 154.84 271.758 154.206 270.302 153.769C268.867 153.332 267.276 153.114 265.529 153.114C262.264 153.114 259.394 153.925 256.919 155.547C254.465 157.169 252.551 159.53 251.179 162.629C249.806 165.707 249.12 169.471 249.12 173.922C249.12 178.373 249.796 182.158 251.148 185.277C252.499 188.397 254.413 190.778 256.888 192.422C259.363 194.044 262.285 194.855 265.654 194.855C268.711 194.855 271.321 194.314 273.484 193.233C275.668 192.13 277.332 190.581 278.476 188.584C279.641 186.588 280.223 184.227 280.223 181.503L282.968 181.908H266.496V171.738H293.232V179.787C293.232 185.402 292.047 190.227 289.676 194.262C287.305 198.276 284.039 201.375 279.88 203.559C275.72 205.722 270.958 206.803 265.592 206.803C259.602 206.803 254.34 205.483 249.806 202.841C245.272 200.179 241.737 196.404 239.199 191.517C236.683 186.609 235.424 180.785 235.424 174.047C235.424 168.868 236.173 164.251 237.671 160.195C239.189 156.119 241.31 152.666 244.035 149.838C246.759 147.009 249.931 144.857 253.55 143.38C257.169 141.904 261.089 141.165 265.311 141.165C268.93 141.165 272.299 141.696 275.419 142.756C278.538 143.796 281.304 145.273 283.717 147.186C286.15 149.1 288.137 151.377 289.676 154.018C291.215 156.639 292.202 159.53 292.639 162.691H278.913ZM303.379 205.93V142.039H346.43V153.176H316.887V168.4H344.215V179.537H316.887V194.792H346.555V205.93H303.379Z" fill="#E4E4E4"/>
<path d="M47.0166 309.747L206.874 311.447L206.855 313.209L47.0166 309.747Z" fill="#014980"/>
<path d="M273.788 308.454L251.656 305.242L232.611 303.328V299.462C229.955 294.493 227.054 289.671 224.133 284.856L206.527 284.683V288.141L212.458 290.118L213.352 302.09L203.798 302.207V322.358L213.352 322.489L212.458 334.449L206.527 336.497V339.954L224.133 339.786L232.611 325.199V321.315L251.644 319.341L273.788 316.158L273.788 308.454Z" fill="#014980"/>
<path d="M224.436 305.99H206.975V318.629H224.436V305.99Z" fill="#E4E4E4"/>
<path d="M223.35 285.924L224.895 288.438L211.936 288.277L210.495 285.924L223.35 285.924Z" fill="#E4E4E4"/>
<path d="M223.35 338.622L224.895 336.107L211.936 336.268L210.495 338.622L223.35 338.622Z" fill="#E4E4E4"/>
<path d="M228.64 307.284C232.441 307.276 235.579 307.265 239.378 307.374C242.251 308.344 244.423 309.955 244.426 312.308C244.429 314.666 242.11 316.409 239.378 317.265L228.64 317.351V307.284Z" fill="#E4E4E4"/>
<path d="M252.813 305.409V319.175L250.664 319.449V315.781L248.88 315.186L248.88 309.454L250.664 308.86L250.664 305.135L252.813 305.409Z" fill="#E4E4E4"/>
<path d="M264.717 308.131V318.46L262.281 318.811V307.785L264.717 308.131Z" fill="#E4E4E4"/>
</svg>
